<?xml version="1.0" encoding="UTF-8"?>
<!DOCTYPE svg PUBLIC "-//W3C//DTD SVG 1.1//EN" "http://www.w3.org/Graphics/SVG/1.1/DTD/svg11.dtd">
<!-- Creator: CorelDRAW 2021 (64-Bit) -->
<svg xmlns="http://www.w3.org/2000/svg" xml:space="preserve" width="4.60656in" height="0.733583in" version="1.1" style="shape-rendering:geometricPrecision; text-rendering:geometricPrecision; image-rendering:optimizeQuality; fill-rule:evenodd; clip-rule:evenodd"
viewBox="0 0 4606.56 733.58"
 xmlns:xlink="http://www.w3.org/1999/xlink"
 xmlns:xodm="http://www.corel.com/coreldraw/odm/2003">
 <defs>
  <style type="text/css">
   <![CDATA[
    .str0 {stroke:black;stroke-width:6.94;stroke-linecap:round;stroke-linejoin:round;stroke-miterlimit:2.61313}
    .fil3 {fill:#373435;fill-rule:nonzero}
    .fil5 {fill:#ED3237;fill-rule:nonzero}
    .fil2 {fill:#22649F;fill-rule:nonzero}
    .fil4 {fill:#00AFEF;fill-rule:nonzero}
    .fil1 {fill:black;fill-rule:nonzero}
    .fil0 {fill:white;fill-rule:nonzero}
   ]]>
  </style>
 </defs>
 <g id="Layer_x0020_1">
  <metadata id="CorelCorpID_0Corel-Layer"/>
  <path class="fil0 str0" d="M4287.44 3.47l-4283.96 0 0 726.64 4283.96 0c174.33,0 315.65,-162.67 315.65,-363.31 0,-200.66 -141.32,-363.32 -315.65,-363.32z"/>
  <g id="_1828072872032">
   <path class="fil1" d="M2929.63 366.79c0,184.86 -191.93,334.72 -428.69,334.72 -236.76,0 -428.69,-149.86 -428.69,-334.72 0,-184.87 191.93,-334.73 428.69,-334.73 236.76,0 428.69,149.86 428.69,334.73z"/>
   <path class="fil2" d="M2419.72 489.17c0.19,-0.72 0.37,-1.46 0.55,-2.18 -4.02,-1.59 -7.92,-3.76 -12.08,-4.67 -12.67,-2.79 -21.02,-9.76 -25.01,-22.38 -5.01,-15.78 -5.82,-20.2 6.62,-29.35 6.4,-4.7 12.22,-10.17 18.3,-15.28 -0.4,-0.63 -0.8,-1.26 -1.19,-1.89 -13.39,5.22 -26.85,10.28 -40.11,15.82 -1.57,0.66 -3.1,3.91 -2.93,5.8 0.91,10.7 1.02,21.77 4.08,31.9 2.04,6.75 7.48,15.63 13.3,17.43 12.16,3.76 25.56,3.46 38.47,4.81zm-266.8 -54.07c-0.57,13.9 1.11,16.1 13.47,18.92 37.11,8.46 74.98,9.11 112.71,11.15 1.33,0.07 2.72,-0.65 5.1,-1.28 -10.3,-12.85 -22.55,-18.92 -38.03,-19.72 -25.85,-1.31 -51.69,-3.12 -77.49,-5.13 -5.3,-0.41 -10.46,-2.58 -15.76,-3.95zm-1.15 19.7c-0.2,7.5 4.29,10.65 8.92,12.85 5.93,2.83 12.2,5.23 18.58,6.75 33.54,8.01 67.7,11.32 102.04,13 5.9,0.29 11.82,0.04 18.17,0.04 -8.62,-16.62 -10.76,-17.32 -27.36,-18.44 -26.63,-1.79 -53.22,-4.17 -79.74,-7.07 -13.26,-1.44 -26.35,-4.57 -40.6,-7.13zm318 -24.47c0.23,21.07 3.85,41.07 17.96,57.87 13.22,15.76 32.24,16.13 45.96,0.9 10.87,-12.07 15.67,-26.74 17.67,-42.35 3.33,-25.98 0.31,-50.79 -16.81,-72 -13.46,-16.69 -35.29,-16.06 -48.06,1.19 -11.95,16.13 -16.8,34.52 -16.72,54.39zm-189.02 -29.66c47.07,11.22 120.1,-15.83 147.45,-46.8 -48.09,-9.34 -119.71,13.53 -147.45,46.8zm51.85 -65.4c0.3,0.81 0.59,1.63 0.87,2.44 2.8,0 5.61,0.1 8.39,-0.02 23.81,-0.99 47.61,-2.07 71.41,-3.06 38.09,-1.59 76.19,-3.22 114.29,-4.58 5.48,-0.19 7.85,-2.52 5.96,-7.2 -3.88,-9.66 -8.09,-19.29 -13.24,-28.3 -1.6,-2.79 -6.75,-5.04 -10.26,-5.01 -27.79,0.17 -55.59,1.67 -83.38,1.28 -16.39,-0.23 -30.63,4.24 -44.12,12.72 -6.49,4.07 -13.13,7.92 -19.59,12.04 -10.16,6.49 -20.23,13.12 -30.34,19.7zm-139.27 20.33c-4.43,1.51 -8.82,3 -13.2,4.49 -0.31,-0.87 -0.63,-1.74 -0.94,-2.6 10.95,-3.32 21.74,-7.35 32.87,-9.82 31.1,-6.89 62.68,-9.93 94.55,-10.02 3.1,-0.01 6.62,-1.59 9.21,-3.45 24.6,-17.63 50.01,-33.86 78.22,-45.18 14.3,-5.73 29.06,-8.98 44.59,-9.97 41.49,-2.63 82.98,-5.51 124.37,-9.43 13.81,-1.31 24.57,2.89 35.23,10.79 -11.8,9.92 -9.37,22.21 -5.06,33.65 6.03,15.96 8.97,32.15 7.59,49.01 -3.02,37.07 -12,72.44 -31.29,104.65 -2.09,3.5 -5.07,6.46 -6.74,8.54 0,-20.26 0.44,-41.09 -0.17,-61.9 -0.35,-12.17 -2.82,-24.12 -9.74,-34.68 -1.59,-2.42 -2.42,-5.32 -3.61,-8 -1.23,1.05 -2.46,2.1 -3.71,3.14 2.02,7.74 4.13,15.46 6.02,23.23 5.19,21.35 7.01,42.64 0.94,64.26 -6.4,22.74 -21.12,38.39 -42.54,45.8 -14.12,4.89 -27.32,1.24 -39.46,-16.25 -9.39,-13.49 -13.37,-29.09 -15.75,-45.13 -0.62,-4.24 -1.38,-8.46 -3.15,-12.57 -10.89,20.21 -9.07,41.12 -4.37,63.22 -9.83,1.74 -19.24,3.88 -28.8,5.03 -45.63,5.51 -91.4,6.97 -137.24,3.11 -14.5,-1.21 -28.93,-3.45 -43.42,-4.66 -10.53,-0.89 -21.32,0.26 -31.66,-1.48 -23.17,-3.93 -46.16,-8.93 -69.14,-13.88 -4.16,-0.89 -7.94,-3.6 -11.57,-5.31 0.29,-1.7 0.19,-2.46 0.48,-2.67 16,-11.22 19.2,-23.46 10.86,-41.88 -0.44,-0.96 -1,-1.87 -1.47,-2.81 -5.2,-10.68 -4.76,-21.39 -0.66,-32.34 2.07,-5.52 4.99,-7.37 11.14,-6.64 18.7,2.24 44.69,-18.89 47.61,-38.26z"/>
   <path class="fil2" d="M2544.2 408.22c-6.5,2.64 -11.97,4.88 -18.02,7.35 -4.43,-8.56 -18.46,-12.65 -15.16,-27.13 1.48,-6.52 -0.2,-14.03 7.09,-18.94 17.61,7.1 20.18,24.29 26.09,38.72z"/>
   <path class="fil2" d="M2519.22 450.65c5.5,8.82 10.49,16.81 16.2,25.99 -6.77,13.35 -15.47,19.06 -28.29,17.3 -4.38,-0.61 -6.46,-1.75 -5.33,-7.09 1.85,-8.76 1.08,-18.27 8.49,-25.13 -5.89,-11.6 8.65,-5.29 8.93,-11.07z"/>
   <path class="fil2" d="M2496.07 429.38c-0.05,-11.53 5.64,-19.87 13.52,-19.81 7.32,0.05 12.83,8.4 12.94,19.61 0.09,10.73 -5.8,19.51 -13.14,19.53 -7.61,0.01 -13.28,-8.22 -13.33,-19.32z"/>
   <path class="fil2" d="M2539.52 467.88c-8.38,-4.13 -15.21,-19.24 -13.14,-27.59 0.88,-3.55 2.13,-7.34 1.72,-10.84 -0.87,-7.53 4.43,-10.49 9.43,-12.74 2.02,-0.9 8.28,1.93 8.41,3.43 1.43,16.28 0.77,32.45 -6.43,47.74z"/>
   <path class="fil2" d="M2507.11 368.77c-0.55,10.24 -0.83,19.9 -1.72,29.5 -0.23,2.57 -2.09,5.15 -3.73,7.34 -1.22,1.63 -3.89,2.32 -4.81,4.02 -2.88,5.31 -7,5.14 -11.26,2.73 -4.7,-2.67 -7.6,-6.6 -5.28,-12.5 4.37,-11.13 8.82,-22.26 20.1,-28.43 2.51,-1.37 5.35,-2.14 6.7,-2.66z"/>
   <path class="fil2" d="M2503.22 455.03c-2.76,9.98 -5.69,20.58 -8.74,31.58 -7.63,-6.31 -11.35,-15.12 -14.24,-24.41 -0.56,-1.76 -0.86,-3.6 -1.43,-5.37 -2.85,-9.06 -0.9,-12.63 8.63,-13.85 2.35,-0.31 5.41,1.44 7.46,3.11 3,2.46 5.37,5.69 8.33,8.95z"/>
   <path class="fil2" d="M2476.76 415.06c5.38,2.02 9.5,3.56 13.57,5.09l0 15.18c-4.44,1.6 -9,3.26 -14.98,5.43 0.49,-9.06 0.93,-17 1.41,-25.69z"/>
   <path class="fil3" d="M2805.03 456.08l12.02 0c0,0 29.71,-70.74 40.35,-169.17 0,0 -28.71,126.56 -52.37,169.17z"/>
   <path class="fil3" d="M2826.95 456.08l18.91 0 23.09 -90.22c0,0 44.12,-152.1 -52.38,-172.55l0 5.38c0,0 66.37,10.04 47.71,123.41 0,0 -21.6,90.05 -37.34,133.98z"/>
   <path class="fil4" d="M2791.28 222.65c0,0 0.85,-23.77 -10.3,-34.51 0,0 14.73,3.16 18.94,30.3 0,0 10.1,-29.24 -17.68,-40.6 0,0 -13.25,-5.89 -17.04,2.31 0,0 -3.37,7.99 9.05,12.2 0,0 8.41,7.36 17.04,30.3z"/>
   <polygon class="fil4" points="2245.47,323.52 2252.19,297.55 2361.6,278.54 2327.53,304.04 "/>
   <polygon class="fil4" points="2266.56,278.54 2284.65,254.67 2357.42,247.95 2338.42,268.57 "/>
   <polygon class="fil4" points="2280.47,242.61 2303.53,218.05 2473.09,208.54 2459.89,223.83 "/>
   <path class="fil4" d="M2363.22 264.4c0.7,-0.7 18.55,-20.63 18.55,-20.63l149.75 -16.22 -12.75 15.06 -155.55 21.79z"/>
   <polygon class="fil4" points="2476.81,223.6 2491.65,205.99 2585.76,200.65 2574.86,214.33 "/>
   <polygon class="fil4" points="2537.31,237.28 2545.65,225.57 2752.2,202.74 "/>
   <polygon class="fil4" points="2592.02,210.62 2599.67,200.65 2756.83,193.01 "/>
   <polygon class="fil4" points="2744.32,187.44 2427.2,148.26 2400.08,164.72 "/>
   <polygon class="fil4" points="2663.19,189.99 2419.09,196.94 2435.55,183.5 "/>
   <polygon class="fil4" points="2398.7,196.94 2414.69,183.5 2353.02,181.41 2331.93,198.8 "/>
   <polygon class="fil4" points="2466.15,138.07 2480.75,129.95 2561.42,145.26 2550.54,151.05 "/>
   <polygon class="fil4" points="2563.74,153.37 2574.4,148.26 2719.52,175.79 "/>
   <polygon class="fil4" points="2522.26,250.51 2602.2,235.92 2597.72,243.22 2552.84,253.32 "/>
   <polygon class="fil4" points="2615.67,242.61 2621.56,232.56 2760.69,208.54 "/>
   <polygon class="fil4" points="2598,269.02 2578.65,258.65 2685.23,233.12 2679.34,244.63 "/>
   <polygon class="fil4" points="2696.45,239.3 2701.77,227.54 2761.8,215.73 "/>
   <polygon class="fil4" points="2624.65,286.92 2612.58,276.31 2647.64,263.24 2644.76,275.09 "/>
   <polygon class="fil4" points="2659.15,269.02 2663.19,258.65 2734.03,233.12 "/>
   <polygon class="fil4" points="2638.67,301.03 2638.67,296.22 2768.81,222.65 2669.52,301.03 "/>
   <polygon class="fil4" points="2699.26,305.21 2717.21,311.65 2772.74,229.19 "/>
   <polygon class="fil4" points="2752.2,327.36 2738.24,318.95 2776.11,233.12 "/>
   <path class="fil4" d="M2677.8 368.5c0,0 -28.98,21.74 0,37.09 0,0 28.69,-15.94 0,-37.09z"/>
   <path class="fil4" d="M2632.31 305.06c0,0 -28.98,21.74 0,37.09 0,0 28.69,-15.94 0,-37.09z"/>
   <path class="fil4" d="M2641.29 347.61c0,0 -28.98,21.74 0,37.09 0,0 28.69,-15.94 0,-37.09z"/>
   <path class="fil4" d="M2666.93 317.75c0,0 -28.98,21.74 0,37.09 0,0 28.69,-15.94 0,-37.09z"/>
   <path class="fil4" d="M2697.96 329.85c0,0 -28.98,21.74 0,37.09 0,0 28.69,-15.94 0,-37.09z"/>
   <path class="fil4" d="M2729.19 353.47c0,0 -28.98,21.74 0,37.09 0,0 28.69,-15.94 0,-37.09z"/>
   <path class="fil4" d="M2770.38 353.47c0,0 -28.98,21.74 0,37.09 0,0 28.69,-15.94 0,-37.09z"/>
   <path class="fil4" d="M2752.81 390.56c0,0 -28.98,21.74 0,37.09 0,0 28.69,-15.94 0,-37.09z"/>
   <path class="fil4" d="M2715.3 387.05c0,0 -28.98,21.74 0,37.09 0,0 28.69,-15.94 0,-37.09z"/>
   <path class="fil4" d="M2684.07 412.42c0,0 -28.98,21.74 0,37.09 0,0 28.69,-15.94 0,-37.09z"/>
   <path class="fil4" d="M2637.8 388.22c0,0 -28.98,21.74 0,37.09 0,0 28.69,-15.94 0,-37.09z"/>
   <path class="fil4" d="M2644.25 430.97c0,0 -28.98,21.74 0,37.09 0,0 28.69,-15.94 0,-37.09z"/>
   <path class="fil4" d="M2589.4 461.62c0,0 -28.98,21.74 0,37.1 0,0 28.69,-15.94 0,-37.1z"/>
   <path class="fil4" d="M2622.39 468.06c0,0 -28.98,21.74 0,37.09 0,0 28.69,-15.94 0,-37.09z"/>
   <path class="fil4" d="M2657.06 471.58c0,0 -28.98,21.74 0,37.09 0,0 28.69,-15.94 0,-37.09z"/>
   <path class="fil4" d="M2686.93 457.33c0,0 -28.98,21.74 0,37.09 0,0 28.69,-15.94 0,-37.09z"/>
   <path class="fil4" d="M2608.33 430.97c0,0 -28.98,21.74 0,37.09 0,0 28.69,-15.94 0,-37.09z"/>
   <path class="fil4" d="M2727.19 427.65c0,0 -28.98,21.74 0,37.09 0,0 28.69,-15.94 0,-37.09z"/>
  </g>
  <path class="fil4" d="M713.83 342.95l-80.01 0c1.61,0 0,-118.66 0,-118.66 0,0 -8.7,-103.58 109.66,-103.58l166.09 0 0 46.3 -151.77 0c0,0 -45.82,-6.2 -45.82,43.91l197.59 0 0 47.25 -194.72 0 -1.01 84.79z"/>
  <polygon class="fil4" points="1017.23,350.77 945.67,350.77 945.67,124.28 1017.23,124.28 "/>
  <path class="fil4" d="M1265.11 350.83l0 -30.93 -112.93 0c0,0 -25.61,-0.84 -25.61,-30.23l138.54 0 0 -31.9 -138.54 0c0,0 -2.11,-29.4 35.26,-29.4l103.28 0 0 -33.58 -132.25 0c0,0 -80.61,-0.85 -80.61,75.99 0,0 -2.46,78.33 76.41,79.96 0.83,0.02 1.66,0.03 2.51,0.03l128.89 0 5.04 0.06z"/>
  <path class="fil1" d="M1294.3 203.99l90.94 4.15 48.75 30.77c0,0 -32.16,33.2 -32.16,32.15 0,-1.03 -107.53,-67.07 -107.53,-67.07z"/>
  <path class="fil5" d="M1083.89 430.33l0 -19.5c0,0 249.02,-37.29 330.39,-138.04 0,0 104.29,-122.67 311.39,-132.42l0 18.52c0,0 -152.04,24.37 -230.99,116.47l127.67 79.91 -93.07 0 -75.04 -47.75c0,0 -119.39,124.75 -370.35,122.8z"/>
  <path class="fil1" d="M614.19 606.84l0 -34.85 -107.06 0c0,0 -39.46,-6.3 -39.46,-52.47 0,0 4.62,-35.69 47.43,-35.69l99.09 0 0 -33.59 -115.46 0c0,0 -69.69,3.37 -69.69,75.58 0,0 11.75,77.67 72.2,77.67l112.94 3.35z"/>
  <polygon class="fil1" points="623.43,604.32 730.48,450.24 749.8,450.24 861.05,606.84 814.87,606.84 788.84,567.8 706.13,567.8 723.77,540.93 769.53,540.93 742.24,497.26 667.09,606.84 "/>
  <polygon class="fil1" points="1364.75,604.32 1471.81,450.24 1491.12,450.24 1602.38,606.84 1556.2,606.84 1530.17,567.8 1447.46,567.8 1465.09,540.93 1510.85,540.93 1483.57,497.26 1408.41,606.84 "/>
  <path class="fil1" d="M873.83 606.84c1.59,-0.81 38.95,0 38.95,0l-2.24 -118.31 91.96 0c0,0 20.75,-0.63 20.75,24.59 0,0 4.78,25.21 -18.2,25.21l-81.09 0 0 29.05 64.18 0 41.82 39.45 48.21 0c0,0 -49.81,-41.68 -48.85,-42.31 0.96,-0.65 0,-5.43 0,-5.43 0,0 30.65,-6.71 30.65,-53.32 0,0 -7.35,-50.13 -59.06,-50.13l-125.79 0 -1.28 151.19z"/>
  <path class="fil1" d="M1140.32 458.79l42.53 0 60.17 105.29 19.19 -30.6 -38.38 -71.05 36.3 0 59.66 101.65 62.75 -99.07 36.31 0 -83.29 136.41c0,0 -3.33,11.41 -15.26,11.41 0,0 -12.48,1.18 -19.11,-10.32l-21.59 -37.15 -22.63 41.48c0,0 -4.41,4.07 -15.03,4.07 0,0 -2.87,4.2 -16.8,-9.73l-84.8 -142.39z"/>
  <path class="fil1" d="M1599.33 610.05l0 -30.31 110.33 0c0,0 19.96,1.75 19.96,-15.86 0,0 1.32,-14.3 -20.02,-14.3l-76.48 0c0,0 -38.4,-0.98 -38.4,-42.68 0,0 2.29,-41.36 38.07,-41.36l119.81 0 0 32.17 -109.96 0c0,0 -13.13,-2.29 -13.13,14.44 0,0 0.32,13.13 14.44,13.13l76.81 0c0,0 39.39,-0.33 39.39,34.79 0,0 8.87,38.56 -36.44,49.98l-124.39 0z"/>
  <path class="fil1" d="M1782.61 469.45l0 142.25c0,0 30.43,1.29 30.43,0 0,-1.28 -1.44,-140.81 0,-142.25 1.45,-1.44 -30.43,0 -30.43,0z"/>
  <path class="fil1" d="M1824.57 554.68l0 -29.48c0,0 71.45,2.24 71.45,0l0 -56.38 34.28 0 0 141.23 -34.93 0 0 -55.69 -70.8 0 0 0.31z"/>
  <path class="fil1" d="M3357.03 206.04l95.58 4.36 51.24 32.34c0,0 -33.8,34.89 -33.8,33.8 0,-1.09 -113.02,-70.51 -113.02,-70.51z"/>
  <path class="fil5" d="M3135.87 443.93l0 -20.49c0,0 261.74,-39.19 347.26,-145.08 0,0 109.61,-128.94 327.29,-139.19l0 19.46c0,0 -159.8,25.61 -242.77,122.42l134.19 84 -97.83 0 -78.87 -50.2c0,0 -125.49,131.13 -389.26,129.07z"/>
  <path class="fil4" d="M4337.63 278.61l0 -11.79c0,0 -35.35,-1.41 -30.64,-34.4 0,0 0.47,-12.73 22.63,-12.73 0,0 29.22,4.24 29.22,40.06l0 30.17 -135.74 0 6.6 -166.37 -49.01 9.42 0 14.61 17.43 0 0 136.68 -54.2 0 0 -67.86 -47.59 9.42 0 18.85c0,0 16.97,-6.6 16.97,7.07l0 32.05 -61.75 0 -3.29 -37.7c0,0 2.35,-29.22 -43.37,-31.1l-37.23 -0.47 90.48 -96.15 -29.69 0 -94.26 95.2 0 27.34 62.69 0c0,0 21.21,4.71 21.21,41.48l-115.94 0c0,0 -2.36,18.38 -15.56,30.63l496.76 9.43 3.3 -65.52c0,0 6.12,-50.91 -57.98,-59.85 0,0 -45.24,-4.25 -52.3,47.13 0,0 -4.25,26.39 24.03,32.05l37.23 2.36z"/>
  <path class="fil4" d="M3704.44 363.64l-18.44 -21c0,0 46.09,-19.96 48.15,-56.33l0 -41.49 -16.39 0 -2.05 -17.42 51.22 -6.99 0 58.22 34.82 0c0,0 2.06,-40.98 0,-42.01 -2.05,-1.02 -21,-1.53 -21,-1.53l1.03 -14.68 52.25 -11.44 -2.57 83.49c0,0 38.93,10.74 32.27,-66.59l-17.94 0 1.03 -19.98 49.69 -8.2 0 74.78c0,0 2.05,66.59 -90.66,54.3l0 -14.34 -40.98 -0.52c0,0 -11.27,38.42 -60.43,51.73z"/>
  <path class="fil4" d="M4112.19 350.15c0,12.06 -8.77,21.83 -19.6,21.83 -10.82,0 -19.61,-9.78 -19.61,-21.83 0,-12.06 8.78,-21.83 19.61,-21.83 10.83,0 19.6,9.77 19.6,21.83z"/>
  <path class="fil4" d="M4150.04 350.15c0,12.06 -8.77,21.83 -19.6,21.83 -10.82,0 -19.61,-9.78 -19.61,-21.83 0,-12.06 8.78,-21.83 19.61,-21.83 10.83,0 19.6,9.77 19.6,21.83z"/>
  <path class="fil4" d="M4329.85 169.39c0,12.06 -8.77,21.83 -19.59,21.83 -10.83,0 -19.61,-9.78 -19.61,-21.83 0,-12.06 8.78,-21.83 19.61,-21.83 10.82,0 19.59,9.77 19.59,21.83z"/>
  <path class="fil1" d="M3186.62 510.76l-19.35 0 0 -18.09 19.35 0 0 18.09zm-29.22 0l-19.36 0 0 -18.09 19.36 0 0 18.09zm70.75 51.41c-1.41,8.6 -8.46,13.98 -18.74,13.98l-62.5 0c-19.96,0 -34.67,-7.34 -44.15,-22.04 -7.44,-11.65 -10.88,-25.98 -10.47,-43.35l21.16 0c0,12.72 2.21,23.11 6.85,31.54 5.84,10.92 15.12,16.48 27.62,16.48l51.2 0c5.24,0 7.85,-3.4 7.85,-10.03l-0.61 -37.98 21.38 0c0.2,9.13 0.4,26.33 0.4,51.41z"/>
  <polygon class="fil1" points="3276.52,576.16 3255.37,576.16 3254.35,460.22 3275.52,460.22 "/>
  <path class="fil1" d="M3273.09 600.17c12.3,-0.19 22.58,-3.59 31.05,-10.57 8.87,-7.35 13.3,-16.67 13.3,-28.13l-0.4 -50.72 21.56 0 0.4 48.74c0,15.59 -4.82,28.31 -14.5,38.52 -9.47,10.22 -22.17,15.95 -38.1,17.02 -3.03,-3.59 -7.45,-8.61 -13.3,-14.87z"/>
  <path class="fil1" d="M3411.76 576.16l-24.8 0c-5.64,0 -10.49,-1.79 -14.31,-5.2 -4.43,-3.76 -6.84,-9.13 -6.84,-15.94l-0.61 -94.8 21.35 0 0.81 87.27c0,6.45 3.65,11.29 9.28,11.29l15.11 0 0 17.38z"/>
  <path class="fil1" d="M3478.48 603.39l-19.35 0 0 -18.09 19.35 0 0 18.09zm-29.03 0l-19.54 0 0 -18.09 19.54 0 0 18.09zm53.83 -27.24l-17.94 0c-6.06,0 -11.28,-2.33 -15.52,-6.8 -2.23,-2.52 -4.04,-5.02 -5.04,-7.71 -3.43,8.78 -13.91,14.34 -25,14.51l-31.85 0 0 -17.38 23.79 0c3.83,0 7.25,-0.9 10.49,-2.87 4.23,-2.32 6.24,-5.55 6.24,-9.68l-0.4 -35.47 21.16 0c0,6.62 0.21,15.94 0.61,27.95 0,6.27 2,11.29 6.23,15.05 3.43,3.41 7.07,5.02 11.1,5.02l16.12 0 0 4.48 0 8.42 0 4.48z"/>
  <path class="fil1" d="M3689.93 576.16l-19.76 0c-3.82,0 -7.86,-1.26 -11.69,-3.76 -4.23,-2.68 -7.25,-6.27 -9.07,-10.75 -3.83,11.11 -12.7,16.84 -26.81,17.03 -12.3,0.18 -21.36,-4.49 -27.02,-14.16 -4.23,9.13 -12.89,13.98 -25.6,14.16 -10.07,0.18 -17.93,-3.06 -23.58,-9.32l0 6.81 -46.96 0 0.2 -17.38 25.81 0c-0.21,-24.19 -0.41,-38.35 -0.41,-42.82l21.16 0 0 25.98 0 0.71c0.61,5.38 2.43,9.68 5.65,12.72 3.42,3.22 7.86,4.83 13.31,4.83 8.27,0 12.29,-4.12 12.29,-12.18 0,-2.52 0,-13.27 -0.2,-32.07l21.17 0c0,5.02 0.19,13.07 0.4,24.37 0.2,6.63 2.02,11.65 5.84,15.05 3.42,3.22 7.67,4.83 13.1,4.83 8.26,0 12.3,-3.95 12.3,-12.01 0,0.55 0,-11.82 -0.2,-37.44l21.17 0c0,6.28 0.2,16.31 0.41,30.1 0.2,5.56 2.41,10.04 6.44,13.45 3.42,3.04 7.07,4.48 10.89,4.48l21.16 0 0 17.38z"/>
  <path class="fil1" d="M3733.26 552.87c0,14.34 -9.67,23.3 -27.2,23.3l-21.37 0 0 -17.38 13.69 0c7.87,0 13.72,-4.3 13.72,-12.37 0,-11.11 -0.21,-25.43 -0.41,-43 -0.2,-19.89 -0.4,-34.4 -0.4,-43.19l21.16 0c0.22,8.24 0.22,23.66 0.41,46.41 0.2,19.35 0.4,34.77 0.4,46.23z"/>
  <polygon class="fil1" points="3781.62,576.16 3760.47,576.16 3759.46,460.22 3780.62,460.22 "/>
  <path class="fil1" d="M3838.87 527.96l21.15 0 0.41 19.7c0.61,25.8 -1.21,28.48 9.68,38.87 6.44,6.1 13.9,9.14 22.98,9.14 17.93,0 32.44,-14.51 32.44,-31.18l-1.41 -106.26 21.58 0 0.59 84.05c0.41,8.77 8.68,16.48 17.33,16.48l18.15 0 0 12.9c0.21,1.96 0.21,3.4 0.21,4.48l-17.15 0c-7.46,0 -13.71,-3.57 -18.34,-10.57 -0.41,27.06 -24.39,49.63 -53.41,49.63 -29.24,0 -53.41,-23.11 -53.41,-50.7 0,-1.07 -0.81,-36.54 -0.81,-36.54z"/>
  <path class="fil1" d="M4048.48 603.39l-19.35 0 0 -18.09 19.35 0 0 18.09zm-29.02 0l-19.55 0 0 -18.09 19.55 0 0 18.09zm53.81 -27.24l-17.94 0c-6.06,0 -11.3,-2.33 -15.52,-6.8 -2.22,-2.52 -4.03,-5.02 -5.04,-7.71 -3.43,8.78 -13.91,14.34 -24.99,14.51l-31.85 0 0 -17.38 23.79 0c3.83,0 7.25,-0.9 10.49,-2.87 4.23,-2.32 6.24,-5.55 6.24,-9.68l-0.4 -35.47 21.16 0c0,6.62 0.2,15.94 0.6,27.95 0,6.27 2.02,11.29 6.25,15.05 3.42,3.41 7.06,5.02 11.08,5.02l16.13 0 0 4.48 0 8.42 0 4.48z"/>
  <path class="fil1" d="M4259.94 576.16l-19.76 0c-3.82,0 -7.87,-1.26 -11.7,-3.76 -4.22,-2.68 -7.24,-6.27 -9.07,-10.75 -3.82,11.11 -12.69,16.84 -26.81,17.03 -12.3,0.18 -21.35,-4.49 -27.01,-14.16 -4.23,9.13 -12.89,13.98 -25.6,14.16 -10.06,0.18 -17.93,-3.06 -23.58,-9.32l0 6.81 -46.95 0 0.2 -17.38 25.81 0c-0.2,-24.19 -0.41,-38.35 -0.41,-42.82l21.17 0 0 25.98 0 0.71c0.61,5.38 2.43,9.68 5.65,12.72 3.42,3.22 7.86,4.83 13.31,4.83 8.27,0 12.3,-4.12 12.3,-12.18 0,-2.52 0,-13.27 -0.2,-32.07l21.17 0c0,5.02 0.2,13.07 0.4,24.37 0.2,6.63 2.02,11.65 5.84,15.05 3.42,3.22 7.67,4.83 13.1,4.83 8.26,0 12.3,-3.95 12.3,-12.01 0,0.55 0,-11.82 -0.2,-37.44l21.17 0c0,6.28 0.2,16.31 0.41,30.1 0.19,5.56 2.41,10.04 6.44,13.45 3.42,3.04 7.06,4.48 10.89,4.48l21.17 0 0 17.38z"/>
  <path class="fil1" d="M4332.7 488.37l-19.56 0 0 -18.1 19.56 0 0 18.1zm16.54 36.91c-7.26,-4.84 -17.14,-7.17 -29.83,-7.17 -8.07,0 -15.52,1.43 -22.18,4.12 11.3,2.68 21.98,10.2 32.06,22.4 8.26,-5.56 14.92,-12.01 19.96,-19.35zm37.29 50.88l-41.32 0c-8.27,0 -15.11,-2.86 -20.57,-8.59 -11.89,5.73 -23.58,8.59 -34.66,8.59l-35.07 0 0 -17.38 34.87 0c7.46,0 15.11,-1.43 22.98,-4.48 -14.72,-15.59 -29.43,-23.83 -44.14,-24.56l0 -14.69c14.92,-9.68 31.64,-14.52 50.39,-14.52 22.37,0 43.54,7.35 57.44,19.53 -8.25,14.16 -19.54,26.52 -33.66,36.92 2.63,1.25 6.46,1.79 11.9,1.79l31.85 0 0 17.38z"/>
  <path class="fil1" d="M4431.26 552.87c0,14.34 -9.68,23.3 -27.22,23.3l-21.37 0 0 -17.38 13.7 0c7.87,0 13.71,-4.3 13.71,-12.37 0,-11.11 -0.2,-25.43 -0.41,-43 -0.2,-19.89 -0.39,-34.4 -0.39,-43.19l21.17 0c0.2,8.24 0.2,23.66 0.4,46.41 0.2,19.35 0.41,34.77 0.41,46.23z"/>
 </g>
</svg>
