<?xml version="1.0" encoding="UTF-8"?>
<!DOCTYPE svg PUBLIC "-//W3C//DTD SVG 1.1//EN" "http://www.w3.org/Graphics/SVG/1.1/DTD/svg11.dtd">
<!-- Creator: CorelDRAW 2021 (64-Bit) -->
<svg xmlns="http://www.w3.org/2000/svg" xml:space="preserve" width="4.59961in" height="0.726638in" version="1.1" style="shape-rendering:geometricPrecision; text-rendering:geometricPrecision; image-rendering:optimizeQuality; fill-rule:evenodd; clip-rule:evenodd"
viewBox="0 0 4599.61 726.64"
 xmlns:xlink="http://www.w3.org/1999/xlink"
 xmlns:xodm="http://www.corel.com/coreldraw/odm/2003">
 <defs>
  <style type="text/css">
   <![CDATA[
    .fil1 {fill:#FEFEFE;fill-rule:nonzero}
    .fil0 {fill:#373435;fill-rule:nonzero}
    .fil4 {fill:#ED3237;fill-rule:nonzero}
    .fil2 {fill:#22649F;fill-rule:nonzero}
    .fil3 {fill:#00AFEF;fill-rule:nonzero}
   ]]>
  </style>
 </defs>
 <g id="Layer_x0020_1">
  <metadata id="CorelCorpID_0Corel-Layer"/>
  <path class="fil0" d="M4283.96 0l-4283.96 0 0 726.64 4283.96 0c174.33,0 315.65,-162.67 315.65,-363.31 0,-200.66 -141.32,-363.32 -315.65,-363.32z"/>
  <g id="_1828074645760">
   <path class="fil1" d="M2926.16 363.32c0,184.87 -191.93,334.72 -428.69,334.72 -236.76,0 -428.69,-149.86 -428.69,-334.72 0,-184.87 191.93,-334.73 428.69,-334.73 236.76,0 428.69,149.86 428.69,334.73z"/>
   <path class="fil2" d="M2416.25 485.69c0.19,-0.72 0.37,-1.46 0.55,-2.18 -4.02,-1.59 -7.92,-3.76 -12.08,-4.67 -12.67,-2.79 -21.02,-9.76 -25.01,-22.38 -5.01,-15.78 -5.82,-20.2 6.62,-29.35 6.4,-4.7 12.22,-10.17 18.3,-15.28 -0.4,-0.63 -0.8,-1.26 -1.19,-1.89 -13.39,5.22 -26.85,10.28 -40.11,15.82 -1.57,0.66 -3.1,3.91 -2.93,5.8 0.91,10.7 1.02,21.77 4.08,31.9 2.04,6.75 7.48,15.63 13.3,17.43 12.16,3.76 25.56,3.46 38.47,4.81zm-266.8 -54.07c-0.57,13.9 1.11,16.1 13.47,18.92 37.11,8.46 74.98,9.11 112.71,11.15 1.33,0.07 2.72,-0.65 5.1,-1.28 -10.3,-12.85 -22.55,-18.92 -38.03,-19.71 -25.85,-1.32 -51.69,-3.13 -77.49,-5.13 -5.3,-0.41 -10.46,-2.58 -15.76,-3.95zm-1.15 19.7c-0.2,7.5 4.29,10.65 8.92,12.85 5.93,2.83 12.2,5.23 18.58,6.75 33.54,8.01 67.7,11.32 102.04,13 5.9,0.29 11.82,0.04 18.17,0.04 -8.62,-16.62 -10.76,-17.32 -27.36,-18.44 -26.63,-1.79 -53.22,-4.17 -79.74,-7.07 -13.26,-1.44 -26.35,-4.57 -40.6,-7.13zm318 -24.47c0.23,21.07 3.85,41.07 17.96,57.87 13.22,15.76 32.24,16.14 45.96,0.9 10.87,-12.07 15.67,-26.74 17.67,-42.34 3.33,-25.99 0.31,-50.79 -16.81,-72.01 -13.46,-16.69 -35.29,-16.06 -48.06,1.19 -11.95,16.13 -16.8,34.52 -16.72,54.39zm-189.02 -29.66c47.07,11.22 120.1,-15.83 147.45,-46.79 -48.09,-9.34 -119.71,13.53 -147.45,46.79zm51.85 -65.4c0.3,0.81 0.59,1.63 0.87,2.44 2.8,0 5.61,0.1 8.39,-0.02 23.81,-0.99 47.61,-2.07 71.41,-3.06 38.09,-1.59 76.19,-3.22 114.29,-4.58 5.48,-0.19 7.85,-2.52 5.96,-7.2 -3.88,-9.66 -8.09,-19.29 -13.24,-28.3 -1.6,-2.79 -6.75,-5.04 -10.26,-5.01 -27.79,0.17 -55.59,1.67 -83.38,1.28 -16.39,-0.23 -30.63,4.24 -44.12,12.72 -6.49,4.07 -13.13,7.92 -19.59,12.04 -10.16,6.49 -20.23,13.12 -30.34,19.7zm-139.27 20.34c-4.43,1.51 -8.82,3 -13.2,4.49 -0.31,-0.87 -0.63,-1.74 -0.94,-2.6 10.95,-3.32 21.74,-7.35 32.87,-9.82 31.1,-6.89 62.68,-9.93 94.55,-10.02 3.1,-0.01 6.62,-1.59 9.21,-3.45 24.6,-17.63 50.01,-33.86 78.22,-45.18 14.3,-5.73 29.06,-8.98 44.59,-9.97 41.49,-2.63 82.98,-5.51 124.37,-9.43 13.81,-1.31 24.57,2.89 35.23,10.79 -11.8,9.92 -9.37,22.21 -5.06,33.65 6.03,15.96 8.97,32.15 7.59,49.01 -3.02,37.07 -12,72.44 -31.29,104.65 -2.09,3.5 -5.07,6.46 -6.74,8.54 0,-20.26 0.44,-41.09 -0.17,-61.9 -0.35,-12.17 -2.82,-24.12 -9.74,-34.68 -1.59,-2.42 -2.42,-5.32 -3.61,-8 -1.23,1.05 -2.46,2.1 -3.71,3.14 2.02,7.74 4.13,15.46 6.02,23.23 5.19,21.35 7.01,42.64 0.94,64.26 -6.4,22.74 -21.12,38.39 -42.54,45.8 -14.12,4.89 -27.32,1.24 -39.46,-16.25 -9.39,-13.49 -13.37,-29.09 -15.75,-45.13 -0.62,-4.24 -1.38,-8.46 -3.15,-12.57 -10.89,20.21 -9.07,41.12 -4.37,63.23 -9.83,1.73 -19.24,3.87 -28.8,5.02 -45.63,5.51 -91.4,6.97 -137.24,3.11 -14.5,-1.21 -28.93,-3.45 -43.42,-4.66 -10.53,-0.89 -21.32,0.26 -31.66,-1.48 -23.17,-3.93 -46.16,-8.93 -69.14,-13.88 -4.16,-0.89 -7.94,-3.6 -11.57,-5.31 0.29,-1.7 0.19,-2.46 0.48,-2.67 16,-11.22 19.2,-23.46 10.86,-41.88 -0.44,-0.96 -1,-1.86 -1.47,-2.81 -5.2,-10.68 -4.76,-21.38 -0.66,-32.34 2.07,-5.52 4.99,-7.37 11.14,-6.64 18.7,2.24 44.69,-18.89 47.61,-38.25z"/>
   <path class="fil2" d="M2540.72 404.75c-6.5,2.64 -11.97,4.88 -18.02,7.35 -4.43,-8.56 -18.46,-12.65 -15.16,-27.13 1.48,-6.52 -0.2,-14.03 7.09,-18.94 17.61,7.1 20.18,24.29 26.09,38.72z"/>
   <path class="fil2" d="M2515.75 447.18c5.5,8.82 10.49,16.81 16.2,25.99 -6.77,13.35 -15.47,19.07 -28.29,17.3 -4.38,-0.61 -6.46,-1.75 -5.33,-7.09 1.85,-8.76 1.08,-18.27 8.49,-25.13 -5.89,-11.6 8.65,-5.29 8.93,-11.07z"/>
   <path class="fil2" d="M2492.6 425.91c-0.05,-11.53 5.64,-19.87 13.52,-19.81 7.32,0.05 12.83,8.4 12.94,19.61 0.09,10.73 -5.8,19.51 -13.14,19.53 -7.61,0.01 -13.28,-8.22 -13.33,-19.32z"/>
   <path class="fil2" d="M2536.04 464.41c-8.38,-4.13 -15.21,-19.24 -13.14,-27.59 0.88,-3.55 2.13,-7.34 1.72,-10.84 -0.87,-7.53 4.43,-10.49 9.43,-12.74 2.02,-0.9 8.28,1.93 8.41,3.43 1.43,16.28 0.77,32.45 -6.43,47.74z"/>
   <path class="fil2" d="M2503.63 365.3c-0.55,10.24 -0.83,19.9 -1.72,29.5 -0.23,2.57 -2.09,5.15 -3.73,7.34 -1.22,1.63 -3.89,2.32 -4.81,4.02 -2.88,5.31 -7,5.14 -11.26,2.73 -4.7,-2.67 -7.6,-6.6 -5.28,-12.5 4.37,-11.13 8.82,-22.26 20.1,-28.43 2.51,-1.37 5.35,-2.14 6.7,-2.66z"/>
   <path class="fil2" d="M2499.75 451.56c-2.76,9.98 -5.69,20.58 -8.74,31.58 -7.63,-6.31 -11.35,-15.12 -14.24,-24.41 -0.56,-1.76 -0.86,-3.6 -1.43,-5.37 -2.85,-9.06 -0.9,-12.63 8.63,-13.85 2.35,-0.31 5.41,1.44 7.46,3.11 3,2.46 5.37,5.69 8.33,8.95z"/>
   <path class="fil2" d="M2473.28 411.59c5.38,2.02 9.5,3.56 13.57,5.09l0 15.18c-4.44,1.6 -9,3.26 -14.98,5.43 0.49,-9.06 0.93,-17 1.41,-25.7z"/>
   <path class="fil0" d="M2801.56 452.61l12.02 0c0,0 29.71,-70.74 40.35,-169.17 0,0 -28.71,126.56 -52.37,169.17z"/>
   <path class="fil0" d="M2823.48 452.61l18.91 0 23.09 -90.22c0,0 44.12,-152.1 -52.38,-172.55l0 5.38c0,0 66.37,10.04 47.71,123.41 0,0 -21.6,90.04 -37.34,133.98z"/>
   <path class="fil3" d="M2787.8 219.18c0,0 0.85,-23.77 -10.3,-34.51 0,0 14.73,3.16 18.94,30.3 0,0 10.1,-29.24 -17.68,-40.6 0,0 -13.25,-5.89 -17.04,2.31 0,0 -3.37,7.99 9.05,12.2 0,0 8.41,7.36 17.04,30.3z"/>
   <polygon class="fil3" points="2242,320.04 2248.72,294.07 2358.13,275.07 2324.06,300.57 "/>
   <polygon class="fil3" points="2263.09,275.07 2281.17,251.19 2353.95,244.48 2334.95,265.1 "/>
   <polygon class="fil3" points="2277,239.14 2300.06,214.57 2469.62,205.07 2456.42,220.36 "/>
   <path class="fil3" d="M2359.75 260.93c0.7,-0.7 18.55,-20.63 18.55,-20.63l149.75 -16.22 -12.75 15.06 -155.55 21.79z"/>
   <polygon class="fil3" points="2473.34,220.13 2488.18,202.52 2582.29,197.18 2571.39,210.86 "/>
   <polygon class="fil3" points="2533.84,233.81 2542.18,222.1 2748.72,199.27 "/>
   <polygon class="fil3" points="2588.55,207.15 2596.19,197.18 2753.36,189.54 "/>
   <polygon class="fil3" points="2740.85,183.97 2423.73,144.79 2396.61,161.25 "/>
   <polygon class="fil3" points="2659.71,186.52 2415.62,193.47 2432.08,180.03 "/>
   <polygon class="fil3" points="2395.22,193.47 2411.22,180.03 2349.55,177.94 2328.46,195.33 "/>
   <polygon class="fil3" points="2462.67,134.6 2477.28,126.48 2557.94,141.78 2547.06,147.58 "/>
   <polygon class="fil3" points="2560.27,149.89 2570.93,144.79 2716.04,172.31 "/>
   <polygon class="fil3" points="2518.79,247.04 2598.73,232.45 2594.25,239.75 2549.37,249.85 "/>
   <polygon class="fil3" points="2612.2,239.14 2618.09,229.09 2757.21,205.07 "/>
   <polygon class="fil3" points="2594.53,265.55 2575.17,255.17 2681.76,229.65 2675.87,241.15 "/>
   <polygon class="fil3" points="2692.98,235.82 2698.3,224.07 2758.33,212.26 "/>
   <polygon class="fil3" points="2621.17,283.45 2609.11,272.84 2644.17,259.77 2641.29,271.61 "/>
   <polygon class="fil3" points="2655.68,265.55 2659.72,255.17 2730.56,229.65 "/>
   <polygon class="fil3" points="2635.2,297.56 2635.2,292.75 2765.34,219.18 2666.05,297.56 "/>
   <polygon class="fil3" points="2695.78,301.74 2713.74,308.18 2769.27,225.72 "/>
   <polygon class="fil3" points="2748.72,323.89 2734.77,315.48 2772.63,229.65 "/>
   <path class="fil3" d="M2674.32 365.03c0,0 -28.98,21.74 0,37.09 0,0 28.69,-15.94 0,-37.09z"/>
   <path class="fil3" d="M2628.84 301.59c0,0 -28.98,21.74 0,37.09 0,0 28.69,-15.94 0,-37.09z"/>
   <path class="fil3" d="M2637.81 344.14c0,0 -28.98,21.74 0,37.09 0,0 28.69,-15.94 0,-37.09z"/>
   <path class="fil3" d="M2663.45 314.28c0,0 -28.98,21.74 0,37.09 0,0 28.69,-15.94 0,-37.09z"/>
   <path class="fil3" d="M2694.49 326.38c0,0 -28.98,21.74 0,37.09 0,0 28.69,-15.94 0,-37.09z"/>
   <path class="fil3" d="M2725.72 350c0,0 -28.98,21.74 0,37.09 0,0 28.69,-15.94 0,-37.09z"/>
   <path class="fil3" d="M2766.91 350c0,0 -28.98,21.74 0,37.09 0,0 28.69,-15.94 0,-37.09z"/>
   <path class="fil3" d="M2749.34 387.09c0,0 -28.98,21.74 0,37.09 0,0 28.69,-15.94 0,-37.09z"/>
   <path class="fil3" d="M2711.83 383.57c0,0 -28.98,21.74 0,37.09 0,0 28.69,-15.94 0,-37.09z"/>
   <path class="fil3" d="M2680.6 408.95c0,0 -28.98,21.74 0,37.09 0,0 28.69,-15.94 0,-37.09z"/>
   <path class="fil3" d="M2634.33 384.74c0,0 -28.98,21.74 0,37.09 0,0 28.69,-15.94 0,-37.09z"/>
   <path class="fil3" d="M2640.78 427.5c0,0 -28.98,21.74 0,37.09 0,0 28.69,-15.94 0,-37.09z"/>
   <path class="fil3" d="M2585.93 458.15c0,0 -28.98,21.74 0,37.1 0,0 28.69,-15.94 0,-37.1z"/>
   <path class="fil3" d="M2618.92 464.59c0,0 -28.98,21.74 0,37.09 0,0 28.69,-15.94 0,-37.09z"/>
   <path class="fil3" d="M2653.59 468.11c0,0 -28.98,21.74 0,37.09 0,0 28.69,-15.94 0,-37.09z"/>
   <path class="fil3" d="M2683.46 453.86c0,0 -28.98,21.74 0,37.09 0,0 28.69,-15.94 0,-37.09z"/>
   <path class="fil3" d="M2604.86 427.5c0,0 -28.98,21.74 0,37.09 0,0 28.69,-15.94 0,-37.09z"/>
   <path class="fil3" d="M2723.71 424.18c0,0 -28.98,21.74 0,37.09 0,0 28.69,-15.94 0,-37.09z"/>
  </g>
  <g id="_1828074058736">
   <path class="fil3" d="M710.35 339.48l-80.01 0c1.61,0 0,-118.66 0,-118.66 0,0 -8.7,-103.58 109.66,-103.58l166.09 0 0 46.3 -151.77 0c0,0 -45.82,-6.2 -45.82,43.91l197.59 0 0 47.25 -194.72 0 -1.01 84.79z"/>
   <polygon class="fil3" points="1013.76,347.3 942.19,347.3 942.19,120.8 1013.76,120.8 "/>
   <path class="fil3" d="M1261.63 347.35l0 -30.93 -112.93 0c0,0 -25.61,-0.84 -25.61,-30.23l138.54 0 0 -31.9 -138.54 0c0,0 -2.11,-29.4 35.26,-29.4l103.28 0 0 -33.58 -132.25 0c0,0 -80.61,-0.84 -80.61,75.99 0,0 -2.46,78.33 76.41,79.96 0.83,0.02 1.66,0.03 2.51,0.03l128.89 0 5.04 0.06z"/>
   <path class="fil1" d="M1290.83 200.52l90.94 4.15 48.75 30.77c0,0 -32.16,33.2 -32.16,32.15 0,-1.03 -107.53,-67.07 -107.53,-67.07z"/>
   <path class="fil4" d="M1080.42 426.86l0 -19.5c0,0 249.02,-37.29 330.39,-138.04 0,0 104.29,-122.67 311.39,-132.42l0 18.52c0,0 -152.04,24.37 -230.99,116.47l127.67 79.91 -93.07 0 -75.04 -47.75c0,0 -119.39,124.75 -370.35,122.8z"/>
   <path class="fil1" d="M610.72 603.37l0 -34.85 -107.06 0c0,0 -39.46,-6.3 -39.46,-52.47 0,0 4.62,-35.69 47.43,-35.69l99.09 0 0 -33.59 -115.46 0c0,0 -69.69,3.37 -69.69,75.58 0,0 11.75,77.67 72.2,77.67l112.94 3.35z"/>
   <polygon class="fil1" points="619.96,600.85 727.01,446.78 746.33,446.78 857.58,603.37 811.4,603.37 785.37,564.33 702.66,564.33 720.3,537.46 766.06,537.46 738.77,493.79 663.62,603.37 "/>
   <polygon class="fil1" points="1361.28,600.85 1468.34,446.78 1487.65,446.78 1598.91,603.37 1552.73,603.37 1526.7,564.33 1443.99,564.33 1461.62,537.46 1507.38,537.46 1480.1,493.79 1404.94,603.37 "/>
   <path class="fil1" d="M870.36 603.37c1.59,-0.81 38.95,0 38.95,0l-2.24 -118.31 91.96 0c0,0 20.75,-0.63 20.75,24.59 0,0 4.78,25.21 -18.2,25.21l-81.09 0 0 29.05 64.18 0 41.82 39.45 48.21 0c0,0 -49.81,-41.68 -48.85,-42.31 0.96,-0.65 0,-5.43 0,-5.43 0,0 30.65,-6.71 30.65,-53.32 0,0 -7.35,-50.13 -59.06,-50.13l-125.79 0 -1.28 151.19z"/>
   <path class="fil1" d="M1136.85 455.32l42.53 0 60.17 105.29 19.19 -30.6 -38.38 -71.05 36.3 0 59.66 101.65 62.75 -99.07 36.31 0 -83.29 136.41c0,0 -3.33,11.41 -15.26,11.41 0,0 -12.48,1.18 -19.11,-10.32l-21.59 -37.15 -22.63 41.48c0,0 -4.41,4.07 -15.03,4.07 0,0 -2.87,4.2 -16.8,-9.73l-84.8 -142.39z"/>
   <path class="fil1" d="M1595.85 606.57l0 -30.31 110.33 0c0,0 19.96,1.75 19.96,-15.86 0,0 1.32,-14.3 -20.02,-14.3l-76.48 0c0,0 -38.4,-0.98 -38.4,-42.67 0,0 2.29,-41.36 38.07,-41.36l119.81 0 0 32.17 -109.96 0c0,0 -13.13,-2.29 -13.13,14.44 0,0 0.32,13.13 14.44,13.13l76.81 0c0,0 39.39,-0.33 39.39,34.79 0,0 8.87,38.56 -36.44,49.98l-124.39 0z"/>
   <path class="fil1" d="M1779.13 465.98l0 142.25c0,0 30.43,1.29 30.43,0 0,-1.28 -1.44,-140.81 0,-142.25 1.45,-1.44 -30.43,0 -30.43,0z"/>
   <path class="fil1" d="M1821.1 551.2l0 -29.48c0,0 71.45,2.24 71.45,0l0 -56.38 34.28 0 0 141.24 -34.93 0 0 -55.69 -70.8 0 0 0.31z"/>
  </g>
  <g id="_1828073993600">
   <path class="fil1" d="M3353.56 202.56l95.58 4.36 51.24 32.34c0,0 -33.8,34.89 -33.8,33.8 0,-1.09 -113.02,-70.51 -113.02,-70.51z"/>
   <path class="fil4" d="M3132.4 440.46l0 -20.49c0,0 261.74,-39.19 347.26,-145.08 0,0 109.61,-128.94 327.29,-139.19l0 19.46c0,0 -159.8,25.61 -242.77,122.42l134.19 84 -97.83 0 -78.87 -50.2c0,0 -125.49,131.13 -389.26,129.07z"/>
   <path class="fil3" d="M4334.16 275.14l0 -11.79c0,0 -35.35,-1.41 -30.64,-34.4 0,0 0.47,-12.73 22.63,-12.73 0,0 29.22,4.24 29.22,40.06l0 30.17 -135.74 0 6.6 -166.37 -49.01 9.42 0 14.62 17.43 0 0 136.68 -54.2 0 0 -67.87 -47.59 9.43 0 18.85c0,0 16.97,-6.6 16.97,7.07l0 32.05 -61.75 0 -3.29 -37.7c0,0 2.35,-29.22 -43.37,-31.1l-37.23 -0.47 90.48 -96.15 -29.69 0 -94.26 95.2 0 27.34 62.69 0c0,0 21.21,4.71 21.21,41.48l-115.94 0c0,0 -2.36,18.38 -15.56,30.63l496.76 9.43 3.3 -65.52c0,0 6.12,-50.9 -57.98,-59.85 0,0 -45.24,-4.25 -52.3,47.13 0,0 -4.25,26.39 24.03,32.05l37.23 2.36z"/>
   <path class="fil3" d="M3700.96 360.17l-18.44 -21c0,0 46.09,-19.96 48.15,-56.33l0 -41.49 -16.39 0 -2.05 -17.42 51.22 -6.99 0 58.22 34.82 0c0,0 2.06,-40.98 0,-42.01 -2.05,-1.02 -21,-1.53 -21,-1.53l1.03 -14.68 52.25 -11.44 -2.57 83.49c0,0 38.93,10.75 32.27,-66.58l-17.94 0 1.03 -19.98 49.69 -8.2 0 74.78c0,0 2.05,66.59 -90.66,54.3l0 -14.34 -40.98 -0.52c0,0 -11.27,38.42 -60.43,51.73z"/>
   <path class="fil3" d="M4108.72 346.67c0,12.06 -8.77,21.83 -19.6,21.83 -10.82,0 -19.61,-9.78 -19.61,-21.83 0,-12.06 8.78,-21.83 19.61,-21.83 10.83,0 19.6,9.77 19.6,21.83z"/>
   <path class="fil3" d="M4146.57 346.67c0,12.06 -8.77,21.83 -19.6,21.83 -10.82,0 -19.61,-9.78 -19.61,-21.83 0,-12.06 8.78,-21.83 19.61,-21.83 10.83,0 19.6,9.77 19.6,21.83z"/>
   <path class="fil3" d="M4326.37 165.91c0,12.06 -8.77,21.83 -19.59,21.83 -10.83,0 -19.61,-9.78 -19.61,-21.83 0,-12.06 8.78,-21.83 19.61,-21.83 10.82,0 19.59,9.77 19.59,21.83z"/>
   <path class="fil1" d="M3183.15 507.29l-19.35 0 0 -18.09 19.35 0 0 18.09zm-29.22 0l-19.36 0 0 -18.09 19.36 0 0 18.09zm70.75 51.41c-1.41,8.6 -8.46,13.98 -18.74,13.98l-62.5 0c-19.96,0 -34.67,-7.34 -44.15,-22.04 -7.44,-11.65 -10.88,-25.98 -10.47,-43.35l21.16 0c0,12.72 2.21,23.11 6.85,31.54 5.84,10.92 15.12,16.48 27.62,16.48l51.2 0c5.24,0 7.85,-3.4 7.85,-10.03l-0.61 -37.98 21.38 0c0.2,9.13 0.4,26.33 0.4,51.41z"/>
   <polygon class="fil1" points="3273.05,572.69 3251.89,572.69 3250.88,456.75 3272.04,456.75 "/>
   <path class="fil1" d="M3269.61 596.7c12.3,-0.19 22.58,-3.59 31.05,-10.57 8.87,-7.35 13.3,-16.67 13.3,-28.13l-0.4 -50.72 21.56 0 0.4 48.74c0,15.59 -4.82,28.31 -14.5,38.52 -9.47,10.22 -22.17,15.95 -38.1,17.02 -3.03,-3.59 -7.45,-8.61 -13.3,-14.87z"/>
   <path class="fil1" d="M3408.29 572.69l-24.8 0c-5.64,0 -10.49,-1.79 -14.31,-5.2 -4.43,-3.76 -6.84,-9.13 -6.84,-15.94l-0.61 -94.8 21.35 0 0.81 87.27c0,6.45 3.65,11.29 9.28,11.29l15.11 0 0 17.38z"/>
   <path class="fil1" d="M3475 599.92l-19.35 0 0 -18.09 19.35 0 0 18.09zm-29.03 0l-19.54 0 0 -18.09 19.54 0 0 18.09zm53.83 -27.24l-17.94 0c-6.06,0 -11.28,-2.33 -15.52,-6.8 -2.23,-2.52 -4.04,-5.02 -5.04,-7.71 -3.43,8.78 -13.91,14.34 -25,14.51l-31.85 0 0 -17.38 23.79 0c3.83,0 7.25,-0.9 10.49,-2.86 4.23,-2.33 6.24,-5.56 6.24,-9.69l-0.4 -35.47 21.16 0c0,6.62 0.21,15.94 0.61,27.95 0,6.27 2,11.29 6.23,15.05 3.43,3.41 7.07,5.02 11.1,5.02l16.12 0 0 4.48 0 8.42 0 4.48z"/>
   <path class="fil1" d="M3686.45 572.69l-19.76 0c-3.82,0 -7.86,-1.26 -11.69,-3.76 -4.23,-2.68 -7.25,-6.27 -9.07,-10.75 -3.83,11.11 -12.7,16.84 -26.81,17.03 -12.3,0.18 -21.36,-4.49 -27.02,-14.16 -4.23,9.13 -12.89,13.98 -25.6,14.16 -10.07,0.18 -17.93,-3.06 -23.58,-9.32l0 6.81 -46.96 0 0.2 -17.38 25.81 0c-0.21,-24.19 -0.41,-38.35 -0.41,-42.82l21.16 0 0 25.98 0 0.71c0.61,5.38 2.43,9.68 5.65,12.72 3.42,3.22 7.86,4.83 13.31,4.83 8.27,0 12.29,-4.12 12.29,-12.18 0,-2.52 0,-13.27 -0.2,-32.07l21.17 0c0,5.02 0.19,13.07 0.4,24.37 0.2,6.63 2.02,11.65 5.84,15.05 3.42,3.22 7.67,4.83 13.1,4.83 8.26,0 12.3,-3.95 12.3,-12.01 0,0.54 0,-11.83 -0.2,-37.45l21.17 0c0,6.28 0.2,16.31 0.41,30.1 0.2,5.56 2.41,10.04 6.44,13.45 3.42,3.04 7.07,4.48 10.89,4.48l21.16 0 0 17.38z"/>
   <path class="fil1" d="M3729.79 549.39c0,14.34 -9.67,23.3 -27.2,23.3l-21.37 0 0 -17.38 13.69 0c7.87,0 13.72,-4.3 13.72,-12.37 0,-11.11 -0.21,-25.44 -0.41,-43 -0.2,-19.89 -0.4,-34.41 -0.4,-43.19l21.16 0c0.22,8.24 0.22,23.66 0.41,46.41 0.2,19.35 0.4,34.77 0.4,46.23z"/>
   <polygon class="fil1" points="3778.15,572.69 3757,572.69 3755.98,456.75 3777.15,456.75 "/>
   <path class="fil1" d="M3835.39 524.49l21.15 0 0.41 19.7c0.61,25.8 -1.21,28.48 9.68,38.87 6.44,6.1 13.9,9.14 22.98,9.14 17.93,0 32.44,-14.51 32.44,-31.17l-1.41 -106.26 21.58 0 0.59 84.05c0.41,8.77 8.68,16.48 17.33,16.48l18.15 0 0 12.9c0.21,1.96 0.21,3.4 0.21,4.48l-17.15 0c-7.46,0 -13.71,-3.57 -18.34,-10.57 -0.41,27.06 -24.39,49.63 -53.41,49.63 -29.24,0 -53.41,-23.11 -53.41,-50.7 0,-1.08 -0.81,-36.55 -0.81,-36.55z"/>
   <path class="fil1" d="M4045.01 599.92l-19.35 0 0 -18.09 19.35 0 0 18.09zm-29.02 0l-19.55 0 0 -18.09 19.55 0 0 18.09zm53.81 -27.24l-17.94 0c-6.06,0 -11.3,-2.33 -15.52,-6.8 -2.22,-2.52 -4.03,-5.02 -5.04,-7.71 -3.43,8.78 -13.91,14.34 -24.99,14.51l-31.85 0 0 -17.38 23.79 0c3.83,0 7.25,-0.9 10.49,-2.86 4.23,-2.33 6.24,-5.56 6.24,-9.69l-0.4 -35.47 21.16 0c0,6.62 0.2,15.94 0.6,27.95 0,6.27 2.02,11.29 6.25,15.05 3.42,3.41 7.06,5.02 11.08,5.02l16.13 0 0 4.48 0 8.42 0 4.48z"/>
   <path class="fil1" d="M4256.46 572.69l-19.76 0c-3.82,0 -7.87,-1.26 -11.7,-3.76 -4.22,-2.68 -7.24,-6.27 -9.07,-10.75 -3.82,11.11 -12.69,16.84 -26.81,17.03 -12.3,0.18 -21.35,-4.49 -27.01,-14.16 -4.23,9.13 -12.89,13.98 -25.6,14.16 -10.06,0.18 -17.93,-3.06 -23.58,-9.32l0 6.81 -46.95 0 0.2 -17.38 25.81 0c-0.2,-24.19 -0.41,-38.35 -0.41,-42.82l21.17 0 0 25.98 0 0.71c0.61,5.38 2.43,9.68 5.65,12.72 3.42,3.22 7.86,4.83 13.31,4.83 8.27,0 12.3,-4.12 12.3,-12.18 0,-2.52 0,-13.27 -0.2,-32.07l21.17 0c0,5.02 0.2,13.07 0.4,24.37 0.2,6.63 2.02,11.65 5.84,15.05 3.42,3.22 7.67,4.83 13.1,4.83 8.26,0 12.3,-3.95 12.3,-12.01 0,0.54 0,-11.83 -0.2,-37.45l21.17 0c0,6.28 0.2,16.31 0.41,30.1 0.19,5.56 2.41,10.04 6.44,13.45 3.42,3.04 7.06,4.48 10.89,4.48l21.17 0 0 17.38z"/>
   <path class="fil1" d="M4329.22 484.89l-19.56 0 0 -18.1 19.56 0 0 18.1zm16.54 36.91c-7.26,-4.84 -17.14,-7.17 -29.83,-7.17 -8.07,0 -15.52,1.43 -22.18,4.12 11.3,2.69 21.98,10.2 32.06,22.4 8.26,-5.56 14.92,-12.01 19.96,-19.35zm37.29 50.88l-41.32 0c-8.27,0 -15.11,-2.86 -20.57,-8.59 -11.89,5.73 -23.58,8.59 -34.66,8.59l-35.07 0 0 -17.38 34.87 0c7.46,0 15.11,-1.43 22.98,-4.48 -14.72,-15.59 -29.43,-23.83 -44.14,-24.56l0 -14.69c14.92,-9.68 31.64,-14.52 50.39,-14.52 22.37,0 43.54,7.35 57.44,19.53 -8.25,14.16 -19.54,26.52 -33.66,36.92 2.63,1.25 6.46,1.79 11.9,1.79l31.85 0 0 17.38z"/>
   <path class="fil1" d="M4427.79 549.39c0,14.34 -9.68,23.3 -27.22,23.3l-21.37 0 0 -17.38 13.7 0c7.87,0 13.71,-4.3 13.71,-12.37 0,-11.11 -0.2,-25.44 -0.41,-43 -0.2,-19.89 -0.39,-34.41 -0.39,-43.19l21.17 0c0.2,8.24 0.2,23.66 0.4,46.41 0.2,19.35 0.41,34.77 0.41,46.23z"/>
  </g>
 </g>
</svg>
